<svg width="11" height="12" viewBox="0 0 11 12" fill="none" xmlns="http://www.w3.org/2000/svg">
<path d="M4.75016 0.46582H6.84853C7.19739 0.46582 7.47804 0.689148 7.47804 0.966742V4.47319H9.77838C10.2453 4.47319 10.4787 4.92194 10.1482 5.18492L6.15869 8.3616C5.96197 8.51814 5.63934 8.51814 5.44262 8.3616L1.44785 5.18492C1.11736 4.92194 1.3508 4.47319 1.81769 4.47319H4.12065V2.71997V0.966742C4.12065 0.689148 4.40131 0.46582 4.75016 0.46582Z" fill="white"/>
<path d="M5.79834 10.0301L6.47001 10.0301H9.86593C10.0215 10.0301 10.1709 9.96927 10.2822 9.86058V9.86058C10.3935 9.75189 10.5429 9.69104 10.6985 9.69104H10.7906V10.9444C10.7906 11.078 10.7381 11.2063 10.6444 11.3016V11.3016C10.5701 11.377 10.4742 11.4275 10.3699 11.4459L10.1948 11.4768C10.1374 11.4869 10.0793 11.492 10.021 11.492H5.79834V10.0301Z" fill="white"/>
<path d="M5.79785 10.0301L5.12618 10.0301H1.73026C1.57469 10.0301 1.42529 9.96927 1.31399 9.86058V9.86058C1.20269 9.75189 1.05329 9.69104 0.897718 9.69104H0.805557V10.9444C0.805557 11.078 0.858079 11.2063 0.951796 11.3016V11.3016C1.02606 11.377 1.12202 11.4275 1.2263 11.4459L1.40137 11.4768C1.45875 11.4869 1.5169 11.492 1.57516 11.492H5.79785V10.0301Z" fill="white"/>
</svg>
